<svg width="48" height="48" viewBox="0 0 48 48" fill="none" xmlns="http://www.w3.org/2000/svg">
<g clip-path="url(#clip0_114_2)">
<rect width="48" height="48" rx="24" fill="#476FF3"/>
<path d="M14.172 12.4419L15.3589 8.09647C15.3735 8.04319 15.4279 8.0136 15.4805 8.03037L19.8632 9.42731" stroke="white" stroke-width="3" stroke-linecap="round"/>
<path d="M12.9638 34.1116L8.72553 32.7607C8.67291 32.7439 8.64205 32.6872 8.6566 32.6339L9.88392 28.1404" stroke="white" stroke-width="3" stroke-linecap="round"/>
<path d="M34.1421 35.8723L32.9552 40.2177C32.9406 40.271 32.8862 40.3006 32.8336 40.2838L28.4508 38.8869" stroke="white" stroke-width="3" stroke-linecap="round"/>
<path d="M35.2963 14.3463L39.5346 15.6972C39.5872 15.714 39.6181 15.7708 39.6035 15.8241L38.3762 20.3176" stroke="white" stroke-width="3" stroke-linecap="round"/>
<rect x="15.8171" y="9" width="24" height="24" rx="12" transform="rotate(16.5019 15.8171 9)" fill="white"/>
<path fill-rule="evenodd" clip-rule="evenodd" d="M22.4072 19.6454C22.6203 18.9261 23.1104 18.3209 23.7697 17.963C24.429 17.605 25.2035 17.5237 25.9228 17.7367C26.6421 17.9498 27.2472 18.4399 27.6052 19.0992C27.9631 19.7585 28.0445 20.533 27.8314 21.2523C27.6183 21.9716 27.1282 22.5767 26.4689 22.9347C25.8096 23.2926 25.0352 23.374 24.3159 23.1609C23.5966 22.9478 22.9914 22.4577 22.6335 21.7984C22.2755 21.1391 22.1942 20.3647 22.4072 19.6454ZM17.6294 27.4768C18.0364 26.1777 18.9379 25.0908 20.1393 24.4505C21.3407 23.8103 22.7457 23.6682 24.051 24.0549C25.3563 24.4416 26.4572 25.3261 27.116 26.5174C27.7748 27.7087 27.9388 29.1113 27.5725 30.4225C27.548 30.5108 27.4983 30.5901 27.4295 30.6506C27.3607 30.7111 27.2757 30.7503 27.185 30.7633C25.5073 31.0029 23.7976 30.8766 22.1733 30.3931C20.4943 29.8956 19.0075 29.0566 17.7687 27.9737C17.6997 27.9134 17.6498 27.8343 17.625 27.746C17.6003 27.6578 17.6018 27.5642 17.6294 27.4768Z" fill="#476FF3"/>
</g>
<defs>
<clipPath id="clip0_114_2">
<rect width="48" height="48" rx="24" fill="white"/>
</clipPath>
</defs>
</svg>
